Coordinates
version=1
nRows=26
nColumns=24
inDegrees=yes

Units are S.I. units (second, meters, Newtons, ...)
Angles are in degrees.

endheader
time	pelvis_tilt	pelvis_list	pelvis_rotation	pelvis_tx	pelvis_ty	pelvis_tz	hip_flexion_r	hip_adduction_r	hip_rotation_r	knee_angle_r	ankle_angle_r	subtalar_angle_r	mtp_angle_r	hip_flexion_l	hip_adduction_l	hip_rotation_l	knee_angle_l	ankle_angle_l	subtalar_angle_l	mtp_angle_l	lumbar_extension	lumbar_bending	lumbar_rotation
      0.72900000	     -2.34687287	      3.64188374	     15.78725623	      0.07893339	      0.97627117	      0.27457145	     26.51379144	     -9.34675875	     -6.83954650	      2.14981567	      7.21011815	    -17.22110892	      3.67150140	    -21.73800066	      1.46178250	     14.26945228	     -3.11106464	      8.20447492	    -10.52631037	     13.07622968	     -0.07453050	     -5.29691698	     -5.87512466
      0.73316667	     -2.32347395	      3.57605145	     15.89011690	      0.08524062	      0.97570505	      0.27481700	     26.49174045	     -9.29916509	     -6.73827606	      1.75021284	      7.29307038	    -17.37746778	      3.66445708	    -21.91619638	      1.26247374	     14.25030480	     -3.44727692	      8.02049259	    -10.49218451	     13.08704870	     -0.02539047	     -5.19334171	     -5.90722265
      0.73733333	     -2.29492019	      3.48543812	     15.97089807	      0.09162212	      0.97516046	      0.27512432	     26.46197128	     -9.20609503	     -6.58482433	      1.32993058	      7.30144617	    -17.60618738	      3.65559421	    -22.08346766	      1.04224621	     14.17431022	     -3.80439020	      7.82549704	    -10.39188740	     13.12816411	      0.01764687	     -5.06285599	     -5.97564847
      0.74150000	     -2.26377230	      3.38759619	     16.05549379	      0.09805613	      0.97466137	      0.27541635	     26.43985174	     -9.10209698	     -6.50846722	      0.84950529	      7.25830991	    -17.80178588	      3.65278929	    -22.23628697	      0.81679518	     14.09547403	     -4.19305922	      7.61456048	    -10.33418086	     13.16682256	      0.08653789	     -4.92763876	     -6.01004195
      0.74566667	     -2.23537272	      3.26535730	     16.11847238	      0.10454221	      0.97418021	      0.27579926	     26.40920631	     -8.95114682	     -6.33767716	      0.38358459	      7.06065792	    -18.15892857	      3.66133349	    -22.34913337	      0.57187248	     13.91634127	     -4.64294531	      7.44623844	    -10.09603048	     13.34500629	      0.13832418	     -4.77594331	     -6.07424165
      0.74983333	     -2.20362219	      3.13530972	     16.18237156	      0.11107727	      0.97374665	      0.27616468	     26.41117218	     -8.79171286	     -6.31773694	     -0.18711571	      6.95331189	    -18.27258607	      3.66388340	    -22.47626774	      0.32331124	     13.84614800	     -5.06582371	      7.17451458	    -10.10183731	     13.37540641	      0.19948219	     -4.61978420	     -6.08761003
      0.75400000	     -2.18662785	      2.96628976	     16.21556379	      0.11772324	      0.97330062	      0.27660876	     26.40445162	     -8.56982782	     -6.17224469	     -0.70112959	      6.65385890	    -18.62427397	      3.72261457	    -22.54477411	      0.04494909	     13.58317131	     -5.55940397	      6.95461284	     -9.81009187	     13.70202363	      0.32339302	     -4.40311499	     -6.11963905
      0.75816667	     -2.15740218	      2.79072878	     16.23829439	      0.12441253	      0.97291520	      0.27703893	     26.42005310	     -8.33625787	     -6.15923261	     -1.30351906	      6.42870949	    -18.70527955	      3.74477850	    -22.64671030	     -0.23245025	     13.44380519	     -6.00602638	      6.59680514	     -9.80488256	     13.80666752	      0.43568295	     -4.17428586	     -6.13533982
      0.76233333	     -2.14914642	      2.60451657	     16.25716244	      0.13112461	      0.97252643	      0.27752879	     26.46853024	     -8.08830775	     -6.15096178	     -1.92933722	      6.09726291	    -18.88426147	      5.04556125	    -22.65669542	     -0.51690065	     13.12818569	     -6.57547418	      6.27528068	     -9.56407304	     18.88257262	      0.56988596	     -3.96253028	     -6.14238954
      0.76650000	     -2.11125349	      2.39564996	     16.24959066	      0.13791640	      0.97221930	      0.27803155	     26.48398376	     -7.79559578	     -6.13898607	     -2.55083346	      5.74226151	    -18.99374079	      5.04536722	    -22.73395273	     -0.81547841	     12.94648902	     -7.07312790	      5.87201062	     -9.57793223	     18.89979631	      0.69004246	     -3.69913753	     -6.15315141
      0.77066667	     -2.08440354	      2.17542695	     16.23148177	      0.14474891	      0.97193408	      0.27856189	     26.51786663	     -7.48635637	     -6.13232044	     -3.18616410	      5.32891567	    -19.11846324	      5.05480817	    -22.76867040	     -1.11638658	     12.71022156	     -7.62571827	      5.45321616	     -9.51642682	     18.94141919	      0.83878621	     -3.42741465	     -6.15345363
      0.77483333	     -2.07083631	      1.93198854	     16.19272270	      0.15161479	      0.97165921	      0.27914873	     26.57945675	     -7.14407784	     -6.11511368	     -3.83744886	      4.88536699	    -19.24483698	      5.07848827	    -22.75605810	     -1.42797610	     12.41983687	     -8.23437061	      5.03327754	     -9.38350349	     19.01974825	      0.98931318	     -3.14437080	     -6.13947082
      0.77900000	     -2.03932937	      1.70101973	     16.13349356	      0.15846358	      0.97142873	      0.27980980	     26.63306930	     -6.79528085	     -6.04824317	     -4.50996753	      4.37410959	    -19.46774038	      5.22622333	    -22.69573353	     -1.73244415	     11.92644924	     -8.97750175	      4.72308173	     -8.92649415	     19.44677448	      1.12667161	     -2.88037490	     -6.09438660
      0.78316667	     -2.01122682	      1.43653972	     16.08177587	      0.16540033	      0.97126124	      0.28039159	     26.69941805	     -6.42666631	     -6.10444989	     -5.21376544	      3.96757657	    -19.45828120	      5.25440600	    -22.67363586	     -2.05465886	     11.67060757	     -9.61924890	      4.17815551	     -8.95276823	     19.53193477	      1.29817808	     -2.54843532	     -6.09416852
      0.78733333	     -2.03638082	      1.16182972	     16.00880377	      0.17231031	      0.97102656	      0.28107778	     26.84578354	     -6.04662653	     -6.09124341	     -5.95057954	      3.51155040	    -19.55686548	      5.41379789	    -22.49198259	     -2.37701314	     11.16031230	    -10.46226609	      3.80905682	     -8.50792329	     19.99229580	      1.51763413	     -2.24847697	     -5.99971596
      0.79150000	     -1.98208017	      0.89098919	     15.90599239	      0.17926911	      0.97096443	      0.28174471	     26.90637566	     -5.64298333	     -6.10482137	     -6.69000203	      3.10063174	    -19.48637491	      5.46232361	    -22.46253178	     -2.69237388	     10.83174383	    -11.16380486	      3.17191888	     -8.51705313	     20.13664194	      1.64658440	     -1.90574121	     -6.01634627
      0.79566667	     -1.98824821	      0.61354860	     15.81008510	      0.18617200	      0.97082323	      0.28246596	     27.06053863	     -5.25117584	     -6.12364955	     -7.49222284	      2.72850863	    -19.48002936	      5.64990011	    -22.23983043	     -3.01530554	     10.25887497	    -12.11916527	      2.76077017	     -8.03119200	     20.71270394	      1.85582852	     -1.58970407	     -5.92176183
      0.79983333	     -1.92186824	      0.32612747	     15.70066361	      0.19311702	      0.97084986	      0.28319031	     27.11726396	     -4.82336483	     -6.13669516	     -8.25033959	      2.28824389	    -19.50023573	      7.73420407	    -22.13156622	     -3.36068134	      9.78045146	    -12.96376037	      2.06026679	     -7.90135975	     27.64809861	      1.96926698	     -1.23724457	     -5.94537615
      0.80400000	     -1.90808807	      0.05381950	     15.55805157	      0.20002325	      0.97081392	      0.28394998	     27.27126742	     -4.41792618	     -6.12934253	     -9.10554992	      2.04749846	    -19.33043816	      7.72552208	    -21.92830053	     -3.65711988	      9.27863673	    -13.91837998	      1.46616071	     -7.68351201	     27.70287205	      2.14425111	     -0.90810139	     -5.87329192
      0.80816667	     -1.87473435	     -0.22489049	     15.41976791	      0.20691237	      0.97085054	      0.28472627	     27.39341929	     -3.99909105	     -6.11006802	     -9.94385654	      1.79684532	    -19.21788150	      7.72353382	    -21.70780013	     -3.97313160	      8.74915889	    -14.92999292	      0.84687763	     -7.40562266	     27.80091463	      2.29195408	     -0.57197625	     -5.83905254
      0.81233333	     -1.83916857	     -0.49799646	     15.27177545	      0.21376758	      0.97091943	      0.28552286	     27.52096325	     -3.58231023	     -6.08484440	    -10.80548664	      1.58786319	    -19.09595541	      7.72624408	    -21.45990491	     -4.28364685	      8.20509782	    -15.99428118	      0.21034294	     -7.11001555	     27.94304771	      2.43219136	     -0.23960510	     -5.80676919
      0.81650000	     -1.79546114	     -0.76647954	     15.12252084	      0.22058445	      0.97103904	      0.28633527	     27.63380609	     -3.16540675	     -6.04912455	    -11.66341319	      1.42268335	    -18.96789866	      7.73048270	    -21.18674199	     -4.59572702	      7.65326407	    -17.11403393	     -0.45271347	     -6.80868289	     28.12001193	      2.55398411	      0.09086112	     -5.78520200
      0.82066667	     -1.74803422	     -1.03112679	     14.97137283	      0.22736478	      0.97119190	      0.28715561	     27.74302954	     -2.75046711	     -6.01011931	    -12.53302357	      1.29657944	    -18.84919924	      7.73282496	    -20.88707282	     -4.90863774	      7.09891718	    -18.28278047	     -1.12961103	     -6.49901280	     28.33913935	      2.66698988	      0.41984479	     -5.77149010
      0.82483333	     -1.69402039	     -1.28591680	     14.82253246	      0.23409764	      0.97140962	      0.28799616	     27.81291049	     -2.33571048	     -5.92401462	    -13.34312582	      1.21460405	    -18.71897950	      7.73248093	    -20.55961187	     -5.21771695	      6.55453473	    -19.50436200	     -1.86843500	     -6.26059198	     28.52342155	      2.76748072	      0.72658297	     -5.77322394
      0.82900000	     -1.64420961	     -1.53770775	     14.68266821	      0.24076648	      0.97163762	      0.28884611	     27.89408438	     -1.92897804	     -5.86352103	    -14.17681877	      1.15934545	    -18.61224111	      7.72586650	    -20.18515804	     -5.53558905	      6.00694496	    -20.79260352	     -2.56749982	     -5.95814406	     28.73912301	      2.85705824	      1.02955842	     -5.78472610
      0.83316667	     -1.58557278	     -1.77970757	     14.54698897	      0.24738767	      0.97191496	      0.28969157	     27.94599878	     -1.52680469	     -5.78855313	    -14.97864139	      1.12857517	    -18.53157920	      7.71108521	    -19.79441268	     -5.84917291	      5.48793587	    -22.11525366	     -3.30114925	     -5.69671138	     28.96692125	      2.93172890	      1.33382881	     -5.81362459
